<?xml version="1.0" encoding="UTF-8"?>
<!DOCTYPE svg PUBLIC "-//W3C//DTD SVG 1.1//EN" "http://www.w3.org/Graphics/SVG/1.1/DTD/svg11.dtd">
<svg xmlns="http://www.w3.org/2000/svg" version="1.1" width="256px" height="256px" style="shape-rendering:geometricPrecision; text-rendering:geometricPrecision; image-rendering:optimizeQuality; fill-rule:evenodd; clip-rule:evenodd" xmlns:xlink="http://www.w3.org/1999/xlink">
<g><path style="opacity:1" fill="#26cdd9" d="M 127.5,-0.5 C 132.833,-0.5 138.167,-0.5 143.5,-0.5C 143.5,4.83333 143.5,10.1667 143.5,15.5C 141.5,15.5 139.5,15.5 137.5,15.5C 134.167,15.5 130.833,15.5 127.5,15.5C 127.5,10.1667 127.5,4.83333 127.5,-0.5 Z"/></g>
<g><path style="opacity:1" fill="#1eb0ba" d="M 111.5,-0.5 C 116.833,-0.5 122.167,-0.5 127.5,-0.5C 127.5,4.83333 127.5,10.1667 127.5,15.5C 122.167,15.5 116.833,15.5 111.5,15.5C 111.5,10.1667 111.5,4.83333 111.5,-0.5 Z"/></g>
<g><path style="opacity:1" fill="#26ceda" d="M 111.5,15.5 C 116.833,15.5 122.167,15.5 127.5,15.5C 127.5,47.5 127.5,79.5 127.5,111.5C 106.167,111.5 84.8333,111.5 63.5,111.5C 63.5,106.167 63.5,100.833 63.5,95.5C 79.5,95.5 95.5,95.5 111.5,95.5C 111.5,90.1667 111.5,84.8333 111.5,79.5C 111.5,74.1667 111.5,68.8333 111.5,63.5C 84.8333,63.5 58.1667,63.5 31.5,63.5C 31.5,58.1667 31.5,52.8333 31.5,47.5C 58.1667,47.5 84.8333,47.5 111.5,47.5C 111.5,42.1667 111.5,36.8333 111.5,31.5C 111.5,26.1667 111.5,20.8333 111.5,15.5 Z"/></g>
<g><path style="opacity:1" fill="#6be1e8" d="M 137.5,15.5 C 139.5,15.5 141.5,15.5 143.5,15.5C 143.5,20.8333 143.5,26.1667 143.5,31.5C 143.5,36.8333 143.5,42.1667 143.5,47.5C 170.167,47.5 196.833,47.5 223.5,47.5C 223.5,52.8333 223.5,58.1667 223.5,63.5C 196.833,63.5 170.167,63.5 143.5,63.5C 143.5,68.8333 143.5,74.1667 143.5,79.5C 143.5,84.8333 143.5,90.1667 143.5,95.5C 143.5,97.1667 143.5,98.8333 143.5,100.5C 156.833,100.5 170.167,100.5 183.5,100.5C 183.5,101.833 183.5,103.167 183.5,104.5C 166.465,104.791 149.465,104.458 132.5,103.5C 133.146,76.3416 132.479,49.3416 130.5,22.5C 131.5,20.8333 132.833,19.5 134.5,18.5C 135.328,22.7956 135.828,27.1289 136,31.5C 136.323,26.1343 136.823,20.8009 137.5,15.5 Z"/></g>
<g><path style="opacity:1" fill="#26cdda" d="M 143.5,31.5 C 170.167,31.5 196.833,31.5 223.5,31.5C 223.5,36.8333 223.5,42.1667 223.5,47.5C 196.833,47.5 170.167,47.5 143.5,47.5C 143.5,42.1667 143.5,36.8333 143.5,31.5 Z"/></g>
<g><path style="opacity:1" fill="#1fb0b9" d="M 111.5,31.5 C 111.5,36.8333 111.5,42.1667 111.5,47.5C 84.8333,47.5 58.1667,47.5 31.5,47.5C 31.5,42.1667 31.5,36.8333 31.5,31.5C 58.1667,31.5 84.8333,31.5 111.5,31.5 Z"/></g>
<g><path style="opacity:1" fill="#26cdda" d="M 143.5,79.5 C 159.5,79.5 175.5,79.5 191.5,79.5C 191.5,84.8333 191.5,90.1667 191.5,95.5C 175.5,95.5 159.5,95.5 143.5,95.5C 143.5,90.1667 143.5,84.8333 143.5,79.5 Z"/></g>
<g><path style="opacity:1" fill="#1fb0ba" d="M 111.5,79.5 C 111.5,84.8333 111.5,90.1667 111.5,95.5C 95.5,95.5 79.5,95.5 63.5,95.5C 63.5,90.1667 63.5,84.8333 63.5,79.5C 79.5,79.5 95.5,79.5 111.5,79.5 Z"/></g>
<g><path style="opacity:1" fill="#69e2e8" d="M 127.5,15.5 C 130.833,15.5 134.167,15.5 137.5,15.5C 136.823,20.8009 136.323,26.1343 136,31.5C 135.828,27.1289 135.328,22.7956 134.5,18.5C 132.833,19.5 131.5,20.8333 130.5,22.5C 132.479,49.3416 133.146,76.3416 132.5,103.5C 149.465,104.458 166.465,104.791 183.5,104.5C 183.5,103.167 183.5,101.833 183.5,100.5C 170.167,100.5 156.833,100.5 143.5,100.5C 143.5,98.8333 143.5,97.1667 143.5,95.5C 159.5,95.5 175.5,95.5 191.5,95.5C 191.5,100.833 191.5,106.167 191.5,111.5C 170.167,111.5 148.833,111.5 127.5,111.5C 127.5,79.5 127.5,47.5 127.5,15.5 Z"/></g>
<g><path style="opacity:1" fill="#1fb0b9" d="M 191.5,143.5 C 148.833,143.5 106.167,143.5 63.5,143.5C 63.5,138.167 63.5,132.833 63.5,127.5C 106.167,127.5 148.833,127.5 191.5,127.5C 191.5,132.833 191.5,138.167 191.5,143.5 Z"/></g>
<g><path style="opacity:1" fill="#25ceda" d="M 63.5,143.5 C 106.167,143.5 148.833,143.5 191.5,143.5C 191.5,148.833 191.5,154.167 191.5,159.5C 196.833,159.5 202.167,159.5 207.5,159.5C 207.5,170.167 207.5,180.833 207.5,191.5C 202.167,191.5 196.833,191.5 191.5,191.5C 191.5,186.167 191.5,180.833 191.5,175.5C 188.167,175.5 184.833,175.5 181.5,175.5C 179.5,175.5 177.5,175.5 175.5,175.5C 175.5,170.167 175.5,164.833 175.5,159.5C 170.167,159.5 164.833,159.5 159.5,159.5C 154.167,159.5 148.833,159.5 143.5,159.5C 132.833,159.5 122.167,159.5 111.5,159.5C 106.167,159.5 100.833,159.5 95.5,159.5C 90.1667,159.5 84.8333,159.5 79.5,159.5C 79.5,164.833 79.5,170.167 79.5,175.5C 77.5,175.5 75.5,175.5 73.5,175.5C 70.1667,175.5 66.8333,175.5 63.5,175.5C 63.5,180.833 63.5,186.167 63.5,191.5C 58.1667,191.5 52.8333,191.5 47.5,191.5C 47.5,180.833 47.5,170.167 47.5,159.5C 52.8333,159.5 58.1667,159.5 63.5,159.5C 63.5,154.167 63.5,148.833 63.5,143.5 Z"/></g>
<g><path style="opacity:1" fill="#20b0b9" d="M 191.5,143.5 C 196.833,143.5 202.167,143.5 207.5,143.5C 207.5,148.833 207.5,154.167 207.5,159.5C 207.5,154.167 207.5,148.833 207.5,143.5C 202.167,143.5 196.833,143.5 191.5,143.5 Z"/></g>
<g><path style="opacity:1" fill="#20b0b8" d="M 63.5,143.5 C 63.5,148.833 63.5,154.167 63.5,159.5C 58.1667,159.5 52.8333,159.5 47.5,159.5C 47.5,154.167 47.5,148.833 47.5,143.5C 52.8333,143.5 58.1667,143.5 63.5,143.5 Z"/></g>
<g><path style="opacity:1" fill="#191a1d" d="M 95.5,159.5 C 95.5,164.833 95.5,170.167 95.5,175.5C 95.5,180.833 95.5,186.167 95.5,191.5C 90.1667,191.5 84.8333,191.5 79.5,191.5C 79.5,186.167 79.5,180.833 79.5,175.5C 79.5,170.167 79.5,164.833 79.5,159.5C 84.8333,159.5 90.1667,159.5 95.5,159.5 Z"/></g>
<g><path style="opacity:1" fill="#9ca8ae" d="M 95.5,159.5 C 100.833,159.5 106.167,159.5 111.5,159.5C 111.5,164.833 111.5,170.167 111.5,175.5C 106.167,175.5 100.833,175.5 95.5,175.5C 95.5,170.167 95.5,164.833 95.5,159.5 Z"/></g>
<g><path style="opacity:1" fill="#19191d" d="M 111.5,159.5 C 122.167,159.5 132.833,159.5 143.5,159.5C 143.5,164.833 143.5,170.167 143.5,175.5C 143.5,180.833 143.5,186.167 143.5,191.5C 148.833,191.5 154.167,191.5 159.5,191.5C 159.5,196.833 159.5,202.167 159.5,207.5C 138.167,207.5 116.833,207.5 95.5,207.5C 95.5,202.167 95.5,196.833 95.5,191.5C 100.833,191.5 106.167,191.5 111.5,191.5C 111.5,186.167 111.5,180.833 111.5,175.5C 111.5,170.167 111.5,164.833 111.5,159.5 Z"/></g>
<g><path style="opacity:1" fill="#9ca8ae" d="M 143.5,159.5 C 148.833,159.5 154.167,159.5 159.5,159.5C 159.5,164.833 159.5,170.167 159.5,175.5C 154.167,175.5 148.833,175.5 143.5,175.5C 143.5,170.167 143.5,164.833 143.5,159.5 Z"/></g>
<g><path style="opacity:1" fill="#191a1d" d="M 159.5,159.5 C 164.833,159.5 170.167,159.5 175.5,159.5C 175.5,164.833 175.5,170.167 175.5,175.5C 175.5,180.833 175.5,186.167 175.5,191.5C 170.167,191.5 164.833,191.5 159.5,191.5C 159.5,186.167 159.5,180.833 159.5,175.5C 159.5,170.167 159.5,164.833 159.5,159.5 Z"/></g>
<g><path style="opacity:1" fill="#6ae2e8" d="M 73.5,175.5 C 73.8245,186.122 73.4911,196.789 72.5,207.5C 73.174,212.853 73.8407,218.186 74.5,223.5C 73.5,223.5 72.5,223.5 71.5,223.5C 71.5,226.5 71.5,229.5 71.5,232.5C 79.5069,232.666 87.5069,232.5 95.5,232C 90.1771,231.501 84.8437,231.334 79.5,231.5C 79.5,230.5 79.5,229.5 79.5,228.5C 111.5,231.167 143.5,231.167 175.5,228.5C 175.5,229.5 175.5,230.5 175.5,231.5C 149.165,231.333 122.831,231.5 96.5,232C 103.081,232.187 109.581,232.687 116,233.5C 138.425,232.506 160.925,232.173 183.5,232.5C 183.5,229.5 183.5,226.5 183.5,223.5C 184.485,227.634 184.818,231.968 184.5,236.5C 146.499,236.333 108.499,236.5 70.5,237C 68.6031,238.11 66.7698,238.276 65,237.5C 64.8255,232.649 64.3255,227.982 63.5,223.5C 58.1667,223.5 52.8333,223.5 47.5,223.5C 47.5,212.833 47.5,202.167 47.5,191.5C 52.8333,191.5 58.1667,191.5 63.5,191.5C 63.5,186.167 63.5,180.833 63.5,175.5C 66.8333,175.5 70.1667,175.5 73.5,175.5 Z"/></g>
<g><path style="opacity:1" fill="#6de0e6" d="M 181.5,175.5 C 184.833,175.5 188.167,175.5 191.5,175.5C 191.5,180.833 191.5,186.167 191.5,191.5C 196.833,191.5 202.167,191.5 207.5,191.5C 207.5,202.167 207.5,212.833 207.5,223.5C 202.167,223.5 196.833,223.5 191.5,223.5C 191.5,228.833 191.5,234.167 191.5,239.5C 148.833,239.5 106.167,239.5 63.5,239.5C 63.5,234.167 63.5,228.833 63.5,223.5C 64.3255,227.982 64.8255,232.649 65,237.5C 66.7698,238.276 68.6031,238.11 70.5,237C 108.499,236.5 146.499,236.333 184.5,236.5C 184.818,231.968 184.485,227.634 183.5,223.5C 182.5,223.5 181.5,223.5 180.5,223.5C 181.159,218.186 181.826,212.853 182.5,207.5C 181.509,196.789 181.176,186.122 181.5,175.5 Z"/></g>
<g><path style="opacity:1" fill="#6de0e7" d="M 73.5,175.5 C 75.5,175.5 77.5,175.5 79.5,175.5C 79.5,180.833 79.5,186.167 79.5,191.5C 79.5,196.833 79.5,202.167 79.5,207.5C 79.5,212.833 79.5,218.167 79.5,223.5C 111.5,223.5 143.5,223.5 175.5,223.5C 175.5,218.167 175.5,212.833 175.5,207.5C 175.5,202.167 175.5,196.833 175.5,191.5C 175.5,186.167 175.5,180.833 175.5,175.5C 177.5,175.5 179.5,175.5 181.5,175.5C 181.176,186.122 181.509,196.789 182.5,207.5C 181.826,212.853 181.159,218.186 180.5,223.5C 181.5,223.5 182.5,223.5 183.5,223.5C 183.5,226.5 183.5,229.5 183.5,232.5C 160.925,232.173 138.425,232.506 116,233.5C 109.581,232.687 103.081,232.187 96.5,232C 122.831,231.5 149.165,231.333 175.5,231.5C 175.5,230.5 175.5,229.5 175.5,228.5C 143.5,231.167 111.5,231.167 79.5,228.5C 79.5,229.5 79.5,230.5 79.5,231.5C 84.8437,231.334 90.1771,231.501 95.5,232C 87.5069,232.5 79.5069,232.666 71.5,232.5C 71.5,229.5 71.5,226.5 71.5,223.5C 72.5,223.5 73.5,223.5 74.5,223.5C 73.8407,218.186 73.174,212.853 72.5,207.5C 73.4911,196.789 73.8245,186.122 73.5,175.5 Z"/></g>
<g><path style="opacity:1" fill="#f5b4b6" d="M 159.5,191.5 C 164.833,191.5 170.167,191.5 175.5,191.5C 175.5,196.833 175.5,202.167 175.5,207.5C 170.167,207.5 164.833,207.5 159.5,207.5C 159.5,202.167 159.5,196.833 159.5,191.5 Z"/></g>
<g><path style="opacity:1" fill="#fefffe" d="M 143.5,175.5 C 148.833,175.5 154.167,175.5 159.5,175.5C 159.5,180.833 159.5,186.167 159.5,191.5C 154.167,191.5 148.833,191.5 143.5,191.5C 143.5,186.167 143.5,180.833 143.5,175.5 Z"/></g>
<g><path style="opacity:1" fill="#fefffe" d="M 95.5,175.5 C 100.833,175.5 106.167,175.5 111.5,175.5C 111.5,180.833 111.5,186.167 111.5,191.5C 106.167,191.5 100.833,191.5 95.5,191.5C 95.5,186.167 95.5,180.833 95.5,175.5 Z"/></g>
<g><path style="opacity:1" fill="#f6b3b6" d="M 79.5,191.5 C 84.8333,191.5 90.1667,191.5 95.5,191.5C 95.5,196.833 95.5,202.167 95.5,207.5C 90.1667,207.5 84.8333,207.5 79.5,207.5C 79.5,202.167 79.5,196.833 79.5,191.5 Z"/></g>
<g><path style="opacity:1" fill="#a6eef0" d="M 79.5,207.5 C 84.8333,207.5 90.1667,207.5 95.5,207.5C 116.833,207.5 138.167,207.5 159.5,207.5C 164.833,207.5 170.167,207.5 175.5,207.5C 175.5,212.833 175.5,218.167 175.5,223.5C 143.5,223.5 111.5,223.5 79.5,223.5C 79.5,218.167 79.5,212.833 79.5,207.5 Z"/></g>
</svg>
